<?xml version="1.0" encoding="UTF-8" standalone="no"?>
<svg width="50px" height="50px" viewBox="0 0 50 50" version="1.1" xmlns="http://www.w3.org/2000/svg" xmlns:xlink="http://www.w3.org/1999/xlink" xmlns:sketch="http://www.bohemiancoding.com/sketch/ns">
    <!-- Generator: Sketch 3.4.2 (15857) - http://www.bohemiancoding.com/sketch -->
    <title>Rectangle 25 Copy 13 + Fill 12 + Fill 13</title>
    <desc>Created with Sketch.</desc>
    <defs></defs>
    <g id="Page-1" stroke="none" stroke-width="1" fill="none" fill-rule="evenodd" sketch:type="MSPage">
        <g id="Sales-Trends" sketch:type="MSArtboardGroup" transform="translate(-15.000000, -93.000000)">
            <g id="Group" sketch:type="MSLayerGroup">
                <g id="Rectangle-25-Copy-13-+-Fill-12-+-Fill-13" transform="translate(15.000000, 93.000000)" sketch:type="MSShapeGroup">
                    <rect id="Rectangle-25-Copy-13" fill="#009CDE" x="0" y="0" width="50" height="50" rx="50"></rect>
                    <g id="Fill-12-+-Fill-13" transform="translate(13.000000, 13.000000)" fill="#FFFFFF">
                        <path d="M15.468,23.915 L16.443,23.52 C21.034,21.66 24,17.213 24,12.191 C24,5.469 18.617,0 12,0 C5.384,0 0,5.469 0,12.191 C0,17.272 3.151,21.869 7.84,23.63 L8.824,24 L8.198,21.482 C4.534,19.932 2.099,16.249 2.099,12.191 C2.099,6.645 6.541,2.132 12,2.132 C17.46,2.132 21.901,6.645 21.901,12.191 C21.901,16.211 19.598,19.784 16.004,21.395 L15.468,23.915 Z" id="Fill-12"></path>
                        <path d="M12.234,9.679 L8.5,4 L10.18,10.588 C9.606,11.299 9.431,12.299 9.824,13.197 C10.38,14.464 11.841,15.034 13.089,14.469 C14.336,13.905 14.897,12.421 14.342,11.154 C13.954,10.269 13.123,9.736 12.234,9.679" id="Fill-13"></path>
                    </g>
                </g>
            </g>
        </g>
    </g>
</svg>