<?xml version="1.0" encoding="UTF-8" standalone="no"?>
<svg width="44px" height="46px" viewBox="0 0 44 46" version="1.1" xmlns="http://www.w3.org/2000/svg" xmlns:xlink="http://www.w3.org/1999/xlink" xmlns:sketch="http://www.bohemiancoding.com/sketch/ns">
    <!-- Generator: Sketch 3.3 (11970) - http://www.bohemiancoding.com/sketch -->
    <title>grfx-tm</title>
    <desc>Created with Sketch.</desc>
    <defs></defs>
    <g id="Page-1" stroke="none" stroke-width="1" fill="none" fill-rule="evenodd" sketch:type="MSPage">
        <path d="M10.0903861,24.7973047 C9.80573319,24.8937552 9.53633361,24.966092 9.28217925,25.0143172 C9.02802488,25.0625425 8.78912337,25.0962997 8.56546753,25.1155898 C8.36214404,25.15417 8.15882359,25.1734598 7.9555001,25.1734598 L7.34553268,25.1734598 C6.47124167,25.1734598 5.67320894,25.0770107 4.95141055,24.8841097 C4.22961216,24.6912087 3.61456782,24.4018614 3.1062591,24.0160594 C2.59795037,23.6302573 2.20147551,23.1335445 1.91682262,22.5259063 C1.63216974,21.918268 1.48984543,21.1997224 1.48984543,20.3702479 C1.48984543,19.9844459 1.51526048,19.6082945 1.56609136,19.2417825 C1.61692223,18.8752705 1.67283535,18.508764 1.7338324,18.1422521 C1.81516179,17.7757401 1.90157298,17.4044112 1.99306855,17.0282541 C2.08456412,16.6520971 2.18114133,16.2807682 2.28280308,15.9142562 L3.83822,9.60642374 L-0.0655714979,9.60642374 L0.727386151,5.9027423 L4.23469883,5.9027423 L5.02765648,1.85184072 L10.4868649,0 L9.29742843,5.9027423 L13.9941776,5.9027423 L13.2012199,9.60642374 L8.53496916,9.60642374 L6.5830734,17.7660969 C6.5830734,17.8625474 6.56274136,17.9782863 6.52207666,18.1133171 C6.48141196,18.2483478 6.43058185,18.3930214 6.36958481,18.5473422 C6.32892011,18.7209532 6.28825602,18.8945615 6.24759132,19.0681724 C6.20692662,19.2417834 6.18659458,19.4250366 6.18659458,19.6179376 C6.18659458,19.8879991 6.23234168,20.1387667 6.32383725,20.3702479 C6.41533282,20.6017292 6.55257412,20.7946273 6.73556526,20.9489482 C6.89822405,21.1225591 7.10154449,21.2527653 7.34553268,21.3395708 C7.58952087,21.4263763 7.85383744,21.4697784 8.13849033,21.4697784 L8.77895612,21.4697784 C9.00261196,21.4697784 9.22626445,21.4504885 9.44992029,21.4119083 C9.67357613,21.3926182 9.87689657,21.3588611 10.0598877,21.3106358 C10.2428789,21.2624105 10.3852032,21.1900737 10.4868649,21.0936232 L10.0903861,24.7973047 Z M42.876135,15.9142562 L40.9242393,24.7973047 L35.8615097,24.7973047 L37.8134054,15.5381011 C37.9150672,15.2680396 38.0116444,14.9545801 38.1031399,14.5977132 C38.1946355,14.2408463 38.2708807,13.8791622 38.3318777,13.5126503 C38.4132071,13.1461383 38.4742033,12.7844543 38.514868,12.4275873 C38.5555327,12.0707204 38.5758647,11.747616 38.5758647,11.4582645 C38.5758647,11.0917525 38.5097856,10.7686481 38.3776253,10.4889416 C38.245465,10.2092351 38.0675596,9.98257976 37.8439038,9.80896882 C37.6405803,9.61606778 37.3965958,9.47621662 37.1119429,9.38941116 C36.82729,9.30260569 36.5426414,9.25920361 36.2579885,9.25920361 C35.3633651,9.25920361 34.6364946,9.48103647 34.077355,9.92470887 C33.5182154,10.3683813 33.0556614,10.9277859 32.6896791,11.6029395 C32.3236968,12.2780932 32.0288822,13.0014612 31.8052263,13.7730654 C31.5815705,14.5446695 31.368084,15.2583927 31.1647605,15.9142562 L29.2128648,24.7973047 L24.1501352,24.7973047 L26.1020309,15.5381011 C26.2036927,15.2680396 26.3002699,14.9545801 26.3917654,14.5977132 C26.483261,14.2408463 26.5595062,13.8791622 26.6205032,13.5126503 C26.7018326,13.1461383 26.7628288,12.7844543 26.8034934,12.4275873 C26.8441581,12.0707204 26.8644902,11.747616 26.8644902,11.4582645 C26.8644902,11.0917525 26.798411,10.7686481 26.6662508,10.4889416 C26.5340905,10.2092351 26.3561851,9.98257976 26.1325293,9.80896882 C25.9292058,9.61606778 25.6852213,9.47621662 25.4005684,9.38941116 C25.1159155,9.30260569 24.8312669,9.25920361 24.546614,9.25920361 C23.6519906,9.25920361 22.9251201,9.48103647 22.3659805,9.92470887 C21.8068409,10.3683813 21.3442869,10.9277859 20.9783046,11.6029395 C20.6123223,12.2780932 20.3175076,13.0014612 20.0938518,13.7730654 C19.870196,14.5446695 19.6567095,15.2583927 19.453386,15.9142562 L17.5014903,24.7973047 L12.4387607,24.7973047 L15.9460733,7.75458302 C15.9460733,7.58097208 15.9664054,7.4025413 16.0070701,7.21928531 C16.0477348,7.03602932 16.0883989,6.84795363 16.1290636,6.65505259 C16.1900606,6.46215155 16.2408907,6.27407586 16.2815554,6.09081987 C16.3222201,5.90756388 16.3425522,5.7291331 16.3425522,5.55552216 L21.0088029,5.55552216 L20.6428225,8.50689331 C21.0291371,8.04393082 21.440861,7.6291998 21.8780065,7.26268783 C22.315152,6.89617585 22.777706,6.58753882 23.2656824,6.33676747 C23.7536588,6.08599612 24.2670429,5.89309797 24.8058501,5.75806724 C25.3446574,5.62303651 25.9088716,5.55552216 26.4985097,5.55552216 C27.0678155,5.55552216 27.6371127,5.64232633 28.2064185,5.81593727 C28.7757243,5.9895482 29.2941914,6.24031579 29.7618354,6.56824756 C30.2294795,6.89617933 30.6208713,7.28679807 30.9360227,7.74011551 C31.2511741,8.19343296 31.4595776,8.69979059 31.5612393,9.25920361 C31.8458922,8.60334007 32.2271181,8.04393545 32.7049283,7.58097295 C33.1827385,7.11801046 33.7164546,6.73221417 34.3060927,6.4235725 C34.8753985,6.11493084 35.4955259,5.89309797 36.1664934,5.75806724 C36.8374609,5.62303651 37.5185844,5.55552216 38.2098842,5.55552216 C38.8808518,5.55552216 39.5467262,5.68572841 40.2075276,5.94614482 C40.8683289,6.20656122 41.4528752,6.56824524 41.9611839,7.03120774 C42.4694926,7.49417023 42.8812165,8.0391075 43.1963679,8.66603588 C43.5115193,9.29296425 43.6690927,9.98257513 43.6690927,10.7348892 C43.6690927,11.1014012 43.6436776,11.5064873 43.5928467,11.9501597 C43.5420159,12.393832 43.4861028,12.8471427 43.4251057,13.3101052 C43.3437763,13.7730677 43.2573651,14.2312008 43.1658696,14.6845182 C43.074374,15.1378357 42.9777968,15.5477442 42.876135,15.9142562 Z" id="grfx-tm" fill="#FFFFFF" sketch:type="MSShapeGroup"></path>
        <g id="Group-Copy" sketch:type="MSLayerGroup" transform="translate(2.000000, 28.000000)">
            <rect id="Rectangle-2-Copy-6" fill="#009CDE" sketch:type="MSShapeGroup" x="0" y="0" width="40" height="18"></rect>
            <g id="Group" transform="translate(3.500000, 3.000000)" sketch:type="MSShapeGroup">
                <path d="M6.30675206,11.5002008 C9.46304813,11.5002008 11.8992184,9.35362223 11.8992184,6.21041787 C11.8992184,3.06721351 9.46304813,0.920634921 6.30675206,0.920634921 C3.15045598,0.920634921 0.714285714,3.06721351 0.714285714,6.21041787 C0.714285714,9.35362223 3.15045598,11.5002008 6.30675206,11.5002008 L6.30675206,11.5002008 Z M6.30675206,8.77097947 C4.82053497,8.77097947 3.85525996,7.63635936 3.85525996,6.21041787 C3.85525996,4.78447638 4.82053497,3.64985627 6.30675206,3.64985627 C7.79296914,3.64985627 8.75824415,4.78447638 8.75824415,6.21041787 C8.75824415,7.63635936 7.79296914,8.77097947 6.30675206,8.77097947 L6.30675206,8.77097947 Z" id="ONE" fill="#FFFFFF"></path>
                <path d="M10.670053,3.51777522 L8.14285714,3.51777501 L9.44360944,1.12698413 L12.8228186,1.12698413 L12.8228185,11.8978122 L10.670053,11.8978123 L10.670053,3.51777522 Z" id="1-copy-18" fill="#009CDE"></path>
                <path d="M22.2717163,11.3111814 L22.2717163,1.12698413 L19.189635,1.12698413 L19.189635,5.9518812 L15.6498188,1.12698413 L12.4761905,1.12698413 L12.4761905,11.3111814 L15.5582718,11.3111814 L15.5582718,6.1503738 L19.3116976,11.3111814 L22.2717163,11.3111814 Z" id="Path-Copy-2" fill="#FFFFFF"></path>
                <path d="M31.7204612,11.3111814 L31.7204612,8.62389699 L27.0820813,8.62389699 L27.0820813,7.50928469 L31.6136564,7.50928469 L31.6136564,4.82200024 L27.0820813,4.82200024 L27.0820813,3.81426857 L31.7204612,3.81426857 L31.7204612,1.12698413 L24,1.12698413 L24,7.92675781 L24,11.3111814 L31.7204612,11.3111814 Z" id="Path-Copy" fill="#FFFFFF"></path>
            </g>
        </g>
    </g>
</svg>